REM DIRINDEX 1\2,1\3,1\4,1\5,1\6
REM DIRNAME cjc030,folder01,folder02,folder03,folder04,folder05
TITLE ""
FILE "Disc6Track22.mp3" MP3
  TRACK 01 AUDIO
    TITLE "3:cjc030_11115"
    INDEX 01 00:00:00
  TRACK 02 AUDIO
    TITLE "0:"
    INDEX 01 00:01:05
  TRACK 03 AUDIO
    TITLE "4:cjc030_11116"
    INDEX 01 00:01:13
  TRACK 04 AUDIO
    TITLE "0:"
    INDEX 01 00:05:12
  TRACK 05 AUDIO
    TITLE "5:cjc030_11117"
    INDEX 01 00:05:22
  TRACK 06 AUDIO
    TITLE "0:"
    INDEX 01 00:06:33
  TRACK 07 AUDIO
    TITLE "6:cjc030_11118"
    INDEX 01 00:06:43
  TRACK 08 AUDIO
    TITLE "0:"
    INDEX 01 00:09:53
  TRACK 09 AUDIO
    TITLE "6:cjc030_11119"
    INDEX 01 00:10:12
  TRACK 10 AUDIO
    TITLE "0:"
    INDEX 01 00:13:32
  TRACK 11 AUDIO
    TITLE "3:cjc030_11120"
    INDEX 01 00:14:07
  TRACK 12 AUDIO
    TITLE "0:"
    INDEX 01 00:15:05
  TRACK 13 AUDIO
    TITLE "4:cjc030_11121"
    INDEX 01 00:15:17
  TRACK 14 AUDIO
    TITLE "0:"
    INDEX 01 00:17:45
  TRACK 15 AUDIO
    TITLE "5:cjc030_11122"
    INDEX 01 00:17:53
  TRACK 16 AUDIO
    TITLE "0:"
    INDEX 01 00:18:52
  TRACK 17 AUDIO
    TITLE "6:cjc030_11123"
    INDEX 01 00:18:66
  TRACK 18 AUDIO
    TITLE "0:"
    INDEX 01 00:21:31
  TRACK 19 AUDIO
    TITLE "3:cjc030_11124"
    INDEX 01 00:22:03
  TRACK 20 AUDIO
    TITLE "0:"
    INDEX 01 00:23:22
  TRACK 21 AUDIO
    TITLE "4:cjc030_11125"
    INDEX 01 00:23:34
  TRACK 22 AUDIO
    TITLE "0:"
    INDEX 01 00:25:68
  TRACK 23 AUDIO
    TITLE "5:cjc030_11126"
    INDEX 01 00:26:01
  TRACK 24 AUDIO
    TITLE "0:"
    INDEX 01 00:27:22
  TRACK 25 AUDIO
    TITLE "6:cjc030_11127"
    INDEX 01 00:27:36
  TRACK 26 AUDIO
    TITLE "0:"
    INDEX 01 00:29:58
  TRACK 27 AUDIO
    TITLE "3:cjc030_11128"
    INDEX 01 00:30:30
  TRACK 28 AUDIO
    TITLE "0:"
    INDEX 01 00:31:35
  TRACK 29 AUDIO
    TITLE "4:cjc030_11129"
    INDEX 01 00:31:47
  TRACK 30 AUDIO
    TITLE "0:"
    INDEX 01 00:35:14
  TRACK 31 AUDIO
    TITLE "5:cjc030_11130"
    INDEX 01 00:35:23
  TRACK 32 AUDIO
    TITLE "0:"
    INDEX 01 00:36:31
  TRACK 33 AUDIO
    TITLE "6:cjc030_11131"
    INDEX 01 00:36:40
  TRACK 34 AUDIO
    TITLE "0:"
    INDEX 01 00:40:13
  TRACK 35 AUDIO
    TITLE "6:cjc030_11132"
    INDEX 01 00:40:60
  TRACK 36 AUDIO
    TITLE "0:"
    INDEX 01 00:45:47
  TRACK 37 AUDIO
    TITLE "3:cjc030_11133"
    INDEX 01 00:46:19
  TRACK 38 AUDIO
    TITLE "0:"
    INDEX 01 00:47:09
  TRACK 39 AUDIO
    TITLE "4:cjc030_11134"
    INDEX 01 00:47:25
  TRACK 40 AUDIO
    TITLE "0:"
    INDEX 01 00:51:16
  TRACK 41 AUDIO
    TITLE "5:cjc030_11135"
    INDEX 01 00:51:26
  TRACK 42 AUDIO
    TITLE "0:"
    INDEX 01 00:52:22
  TRACK 43 AUDIO
    TITLE "6:cjc030_11136"
    INDEX 01 00:52:30
  TRACK 44 AUDIO
    TITLE "0:"
    INDEX 01 00:57:23
  TRACK 45 AUDIO
    TITLE "3:cjc030_11137"
    INDEX 01 00:57:70
  TRACK 46 AUDIO
    TITLE "0:"
    INDEX 01 00:58:66
  TRACK 47 AUDIO
    TITLE "4:cjc030_11138"
    INDEX 01 00:59:04
  TRACK 48 AUDIO
    TITLE "0:"
    INDEX 01 01:03:51
  TRACK 49 AUDIO
    TITLE "5:cjc030_11139"
    INDEX 01 01:03:61
  TRACK 50 AUDIO
    TITLE "0:"
    INDEX 01 01:04:58
  TRACK 51 AUDIO
    TITLE "6:cjc030_11140"
    INDEX 01 01:04:70
  TRACK 52 AUDIO
    TITLE "0:"
    INDEX 01 01:06:34
  TRACK 53 AUDIO
    TITLE "3:cjc030_11141"
    INDEX 01 01:07:08
  TRACK 54 AUDIO
    TITLE "0:"
    INDEX 01 01:08:15
  TRACK 55 AUDIO
    TITLE "4:cjc030_11142"
    INDEX 01 01:08:29
  TRACK 56 AUDIO
    TITLE "0:"
    INDEX 01 01:11:62
  TRACK 57 AUDIO
    TITLE "5:cjc030_11143"
    INDEX 01 01:11:74
  TRACK 58 AUDIO
    TITLE "0:"
    INDEX 01 01:13:08
  TRACK 59 AUDIO
    TITLE "6:cjc030_11144"
    INDEX 01 01:13:20
  TRACK 60 AUDIO
    TITLE "0:"
    INDEX 01 01:15:52
  TRACK 61 AUDIO
    TITLE "6:cjc030_11145"
    INDEX 01 01:16:11
  TRACK 62 AUDIO
    TITLE "0:"
    INDEX 01 01:18:68
  TRACK 63 AUDIO
    TITLE "3:cjc030_11146"
    INDEX 01 01:19:40
  TRACK 64 AUDIO
    TITLE "0:"
    INDEX 01 01:20:44
  TRACK 65 AUDIO
    TITLE "4:cjc030_11147"
    INDEX 01 01:20:55
  TRACK 66 AUDIO
    TITLE "0:"
    INDEX 01 01:23:24
  TRACK 67 AUDIO
    TITLE "5:cjc030_11148"
    INDEX 01 01:23:34
  TRACK 68 AUDIO
    TITLE "0:"
    INDEX 01 01:24:39
  TRACK 69 AUDIO
    TITLE "6:cjc030_11149"
    INDEX 01 01:24:49
  TRACK 70 AUDIO
    TITLE "0:"
    INDEX 01 01:26:64
  TRACK 71 AUDIO
    TITLE "3:cjc030_11150"
    INDEX 01 01:27:36
  TRACK 72 AUDIO
    TITLE "0:"
    INDEX 01 01:28:41
  TRACK 73 AUDIO
    TITLE "4:cjc030_11151"
    INDEX 01 01:28:49
  TRACK 74 AUDIO
    TITLE "0:"
    INDEX 01 01:30:69
  TRACK 75 AUDIO
    TITLE "5:cjc030_11152"
    INDEX 01 01:31:02
  TRACK 76 AUDIO
    TITLE "0:"
    INDEX 01 01:32:10
  TRACK 77 AUDIO
    TITLE "6:cjc030_11153"
    INDEX 01 01:32:21
  TRACK 78 AUDIO
    TITLE "0:"
    INDEX 01 01:34:40
  TRACK 79 AUDIO
    TITLE "3:cjc030_11154"
    INDEX 01 01:35:14
  TRACK 80 AUDIO
    TITLE "0:"
    INDEX 01 01:36:11
  TRACK 81 AUDIO
    TITLE "4:cjc030_11155"
    INDEX 01 01:36:19
  TRACK 82 AUDIO
    TITLE "0:"
    INDEX 01 01:38:00
  TRACK 83 AUDIO
    TITLE "5:cjc030_11156"
    INDEX 01 01:38:08
  TRACK 84 AUDIO
    TITLE "0:"
    INDEX 01 01:39:08
  TRACK 85 AUDIO
    TITLE "6:cjc030_11157"
    INDEX 01 01:39:17
  TRACK 86 AUDIO
    TITLE "0:"
    INDEX 01 01:41:73
  TRACK 87 AUDIO
    TITLE "3:cjc030_11158"
    INDEX 01 01:42:49
  TRACK 88 AUDIO
    TITLE "0:"
    INDEX 01 01:43:56
  TRACK 89 AUDIO
    TITLE "4:cjc030_11159"
    INDEX 01 01:43:68
  TRACK 90 AUDIO
    TITLE "0:"
    INDEX 01 01:49:47
  TRACK 91 AUDIO
    TITLE "5:cjc030_11160"
    INDEX 01 01:49:55
  TRACK 92 AUDIO
    TITLE "0:"
    INDEX 01 01:50:68
  TRACK 93 AUDIO
    TITLE "6:cjc030_11161"
    INDEX 01 01:51:03
  TRACK 94 AUDIO
    TITLE "0:"
    INDEX 01 01:54:31
  TRACK 95 AUDIO
    TITLE "3:cjc030_11162"
    INDEX 01 01:55:09
  TRACK 96 AUDIO
    TITLE "0:"
    INDEX 01 01:56:08
  TRACK 97 AUDIO
    TITLE "4:cjc030_11163"
    INDEX 01 01:56:20
  TRACK 98 AUDIO
    TITLE "0:"
    INDEX 01 02:03:00
  TRACK 99 AUDIO
    TITLE "5:cjc030_11164"
    INDEX 01 02:03:10
  TRACK 100 AUDIO
    TITLE "0:"
    INDEX 01 02:04:12
  TRACK 101 AUDIO
    TITLE "6:cjc030_11165"
    INDEX 01 02:04:23
  TRACK 102 AUDIO
    TITLE "0:"
    INDEX 01 02:08:00
  TRACK 103 AUDIO
    TITLE "3:cjc030_11166"
    INDEX 01 02:08:47
  TRACK 104 AUDIO
    TITLE "0:"
    INDEX 01 02:09:48
  TRACK 105 AUDIO
    TITLE "4:cjc030_11167"
    INDEX 01 02:09:58
  TRACK 106 AUDIO
    TITLE "0:"
    INDEX 01 02:11:08
  TRACK 107 AUDIO
    TITLE "5:cjc030_11168"
    INDEX 01 02:11:15
  TRACK 108 AUDIO
    TITLE "0:"
    INDEX 01 02:12:19
  TRACK 109 AUDIO
    TITLE "6:cjc030_11169"
    INDEX 01 02:12:35
  TRACK 110 AUDIO
    TITLE "0:"
    INDEX 01 02:15:47
